<svg xmlns="http://www.w3.org/2000/svg" width="180" height="180" viewBox="0 0 180 180">
  <defs>
    <linearGradient id="brand-grad" x1="0" y1="0" x2="1" y2="1">
      <stop offset="0%" stop-color="#00c8ff" />
      <stop offset="100%" stop-color="#00d4aa" />
    </linearGradient>
  </defs>
  <rect width="180" height="180" rx="36" fill="#0a1628" />
  <g transform="translate(30, 30) scale(1.52)">
    <path fill="url(#brand-grad)" d="M19.76,19.76h19.76v19.76h0c-10.91,0-19.76-8.86-19.76-19.76h0Z" />
    <path fill="#fff"
      d="M39.53,39.53v19.76h-19.76V0C8.85,0,0,8.85,0,19.76v39.53c0,10.92,8.85,19.76,19.76,19.76h39.53v-19.76h0c0-10.92-8.85-19.76-19.76-19.76Z" />
    <polygon fill="url(#brand-grad)"
      points="59.29 0 39.53 0 19.76 0 19.76 19.76 39.53 19.76 59.29 19.76 59.29 39.53 59.29 59.29 59.29 79.06 79.06 79.06 79.06 59.29 79.06 39.53 79.06 19.76 79.06 0 59.29 0" />
  </g>
</svg>