<svg width="320" height="80" viewBox="0 0 320 80" fill="none" xmlns="http://www.w3.org/2000/svg">
  <defs>
    <linearGradient id="tl-fg" x1="0%" y1="0%" x2="100%" y2="100%">
      <stop offset="0%" stop-color="#00c8ff" />
      <stop offset="100%" stop-color="#00d4aa" />
    </linearGradient>
    <linearGradient id="tl-bg" x1="0%" y1="0%" x2="100%" y2="100%">
      <stop offset="0%" stop-color="#00c8ff" stop-opacity="0.15" />
      <stop offset="100%" stop-color="#00d4aa" stop-opacity="0.05" />
    </linearGradient>
  </defs>

  <!-- Tantia icon mark (scaled to fit ~72x72 area) -->
  <g transform="translate(4, 4) scale(0.91)">
    <path fill="url(#tl-fg)" d="M19.76,19.76h19.76v19.76h0c-10.91,0-19.76-8.86-19.76-19.76h0Z" />
    <path fill="url(#tl-bg)" stroke="url(#tl-fg)" stroke-width="1.5" stroke-linejoin="round"
      d="M39.53,39.53v19.76h-19.76V0C8.85,0,0,8.85,0,19.76v39.53c0,10.92,8.85,19.76,19.76,19.76h39.53v-19.76h0c0-10.92-8.85-19.76-19.76-19.76Z" />
    <polygon fill="url(#tl-fg)"
      points="59.29 0 39.53 0 19.76 0 19.76 19.76 39.53 19.76 59.29 19.76 59.29 39.53 59.29 59.29 59.29 79.06 79.06 79.06 79.06 59.29 79.06 39.53 79.06 19.76 79.06 0 59.29 0" />
  </g>

  <!-- "Tantia" wordmark -->
  <g fill="white" transform="translate(88, 0)">
    <path d="M0 20h28.5v7.5h-10v30h-8.5v-30h-10z" />
    <path
      d="M46.5 33.5c0-2.5-2-4-5-4-2.5 0-4.5 1-5.5 3l-6.5-3c2-4 6.5-6.5 12.5-6.5 7.5 0 13 4 13 10.5v24h-8v-3.5c-2 2.5-5 4.5-9.5 4.5-5.5 0-10-3.5-10-8.5 0-5.5 4.5-8.5 11-8.5h8.5v-8zm0 13.5v-1h-7c-3 0-5 1.5-5 4s2 4 5 4c4.5 0 7-2.5 7-7z" />
    <path
      d="M60 23.5h8.5v4.5c2-3 5.5-5.5 10.5-5.5 7 0 11.5 5 11.5 12.5v22.5h-8.5V36.5c0-4.5-2.5-7-6.5-7-4.5 0-7 3-7 8v20h-8.5z" />
    <path
      d="M101 13h8.5v10.5h7v7h-7V49c0 2.5 1 3.5 3.5 3.5h3.5v7h-5c-6 0-10-3-10-10V30.5h-5v-7h4.5z" />
    <path d="M122 23.5h8.5v34h-8.5zm0-13.5h8.5v8.5h-8.5z" />
    <path
      d="M152 33.5c0-2.5-2-4-5-4-2.5 0-4.5 1-5.5 3l-6.5-3c2-4 6.5-6.5 12.5-6.5 7.5 0 13 4 13 10.5v24h-8v-3.5c-2 2.5-5 4.5-9.5 4.5-5.5 0-10-3.5-10-8.5 0-5.5 4.5-8.5 11-8.5h8.5v-8zm0 13.5v-1h-7c-3 0-5 1.5-5 4s2 4 5 4c4.5 0 7-2.5 7-7z" />
  </g>
</svg>