<svg xmlns="http://www.w3.org/2000/svg" viewBox="0 0 92 46" fill="none">
  <rect width="92" height="46" rx="4" fill="#0070F2" />
  <path
    d="M18.5 31.5c-1.8 0-3.3-.4-4.5-1.2l1.2-3.2c1 .7 2.1 1 3.2 1 1.2 0 1.8-.4 1.8-1.1 0-.7-.6-1-2.2-1.5-2.4-.8-3.8-1.9-3.8-4.1 0-2.5 2-4.2 5-4.2 1.6 0 2.9.3 4 .9l-1.1 3.1c-.9-.5-1.9-.8-2.9-.8-1.1 0-1.6.4-1.6 1 0 .6.6.9 2.1 1.4 2.5.8 3.9 2 3.9 4.2 0 2.5-1.9 4.5-5.1 4.5zM36.8 31.2l-1.2-3.6h-5.3l-1.1 3.6h-4.5L30.5 17h5l5.8 14.2h-4.5zm-4-10.5l-1.6 4.4h3.2l-1.6-4.4zM49 24.5v6.7h-4.3V17.5h4.6c4.5 0 7.2 1.6 7.2 5.2 0 3.4-2.5 5.4-7.5 5.4V24.5h.6c2 0 2.8-.7 2.8-1.9 0-1.2-.9-1.8-2.8-1.8H49v3.7z"
    fill="white" />
</svg>