<svg xmlns="http://www.w3.org/2000/svg" viewBox="0 0 48 48" fill="none">
  <rect width="48" height="48" rx="8" fill="#635BFF" />
  <path fill-rule="evenodd" clip-rule="evenodd"
    d="M22.2 19.704c0-1.296 1.068-1.8 2.832-1.8 2.532 0 5.724.768 8.256 2.136V12.6c-2.76-1.096-5.496-1.524-8.256-1.524C19.776 11.076 16 14.16 16 19.104c0 7.692 10.596 6.468 10.596 9.792 0 1.536-1.332 2.028-3.192 2.028-2.76 0-6.288-1.14-9.084-2.664v7.56c3.096 1.332 6.216 1.884 9.084 1.884 5.4 0 9.096-2.664 9.096-7.668-.024-8.304-10.644-6.828-10.644-10.332h.344z"
    fill="white" />
</svg>