<svg xmlns="http://www.w3.org/2000/svg" viewBox="0 0 48 48" fill="none">
  <circle cx="24" cy="24" r="24" fill="#25D366" />
  <path fill-rule="evenodd" clip-rule="evenodd"
    d="M24 10C16.268 10 10 16.268 10 24c0 2.476.648 4.8 1.78 6.812L10 38l7.393-1.696A13.944 13.944 0 0 0 24 38c7.732 0 14-6.268 14-14S31.732 10 24 10zm0 25.5c-2.207 0-4.26-.6-6.024-1.644l-.432-.254-4.476 1.028 1.068-4.34-.28-.444A11.428 11.428 0 0 1 12.5 24c0-6.351 5.149-11.5 11.5-11.5S35.5 17.649 35.5 24 30.351 35.5 24 35.5z"
    fill="white" />
  <path
    d="M31.284 27.18c-.396-.198-2.34-1.152-2.703-1.284-.363-.132-.627-.198-.891.198s-1.023 1.284-1.254 1.548c-.231.264-.462.297-.858.099-.396-.198-1.671-.615-3.183-1.962-1.176-1.047-1.97-2.34-2.202-2.736-.231-.396-.024-.612.174-.81.177-.177.396-.462.594-.693.198-.231.264-.396.396-.66.132-.264.066-.495-.033-.693-.099-.198-.891-2.145-1.221-2.937-.321-.77-.648-.666-.891-.678-.231-.012-.495-.015-.759-.015s-.693.099-1.056.495c-.363.396-1.386 1.353-1.386 3.3s1.419 3.828 1.617 4.092c.198.264 2.793 4.266 6.768 5.982.945.408 1.683.651 2.259.834.948.3 1.812.258 2.493.156.76-.114 2.34-.957 2.67-1.881.33-.924.33-1.716.231-1.881-.099-.165-.363-.264-.759-.462z"
    fill="white" />
</svg>